<?xml version="1.0" encoding="utf-8"?>
<!-- Generator: Adobe Illustrator 18.1.0, SVG Export Plug-In . SVG Version: 6.00 Build 0)  -->
<svg version="1.1" id="Layer_1" xmlns="http://www.w3.org/2000/svg" xmlns:xlink="http://www.w3.org/1999/xlink" x="0px" y="0px"
	 viewBox="0 213.7 960 132.6" enable-background="new 0 213.7 960 132.6" xml:space="preserve">
<g>
	<path fill="#582D83" d="M92.7,323.3c1.5-1.5,2.1-3.1,2.1-5V247c0-2.9-0.4-5.2-1.5-6.8c-1-1.7-2.5-2.9-4.8-3.9
		c-2.5-1-4.1-1.7-5.2-1.9c-1-0.2-2.1-0.4-2.9-0.4c-3.3,0-6.2,1.7-8.3,5l-24.7,36.5L22.8,239c-2.3-3.3-5-5-8.3-5
		c-0.8,0-1.9,0.2-2.9,0.4c-1.2,0.2-2.9,0.8-5.4,1.9c-2.1,0.8-3.7,2.3-4.8,3.9c-1,1.7-1.5,3.9-1.5,6.8v71.3c0,1.9,0.6,3.5,2.1,5
		c1.5,1.5,3.1,2.1,5,2.1h5.8c1.9,0,3.5-0.6,5-2.1c1.5-1.5,2.1-3.1,2.1-5v-50l15.3,21.8c1.9,2.5,3.7,4.6,5.6,6
		c1.9,1.5,4.1,2.1,6.4,2.1c2.5,0,4.6-0.6,6.4-2.1c1.9-1.5,3.7-3.5,5.6-6l15.3-21.8v50c0,1.9,0.6,3.5,2.1,5c1.5,1.5,3.1,2.1,5,2.1
		h5.8C89.6,325.4,91.2,324.8,92.7,323.3 M156.5,264.2c0,3.3-1,6.2-2.9,8.5c-2.1,2.5-4.8,3.7-8.5,3.7h-18.7V252h18.7
		c3.7,0,6.6,1.2,8.5,3.7C155.5,258,156.5,260.9,156.5,264.2 M283.2,318.4V247c0-2.9-0.4-5.2-1.5-6.8c-1-1.7-2.5-2.9-4.8-3.9
		c-2.5-1-4.1-1.7-5.2-1.9c-1-0.2-2.1-0.4-2.9-0.4c-3.3,0-6.2,1.7-8.5,5l-24.5,36.7L211.2,239c-2.3-3.3-5-5-8.5-5
		c-0.8,0-1.9,0.2-2.9,0.4c-1,0.2-2.9,1-5.2,1.9c-2.1,0.8-3.7,2.3-4.8,3.9c-1,1.7-1.5,3.9-1.5,6.8v66.5c0,1.5-0.4,2.3-1,2.3
		c-0.4,0-1.2-0.4-2.1-1.2l-24-24.9c4.6-2.3,8.1-5.6,11-10c2.9-4.4,4.1-9.5,4.1-15.5c0-4.4-0.8-8.3-2.5-12c-1.7-3.7-3.9-6.8-6.6-9.5
		c-2.9-2.7-6.2-4.8-10-6.4c-3.9-1.5-7.9-2.3-12.2-2.3h-18.9c-7,0-12.2,1.5-15.3,4.6c-3.1,3.1-4.6,7.7-4.6,13.7v66.1
		c0,1.9,0.6,3.5,2.1,5c1.5,1.5,3.1,2.1,5,2.1h5.8c1.9,0,3.5-0.6,5-2.1c1.5-1.5,2.1-3.1,2.1-5v-24.3h13.3l21.1,22.6
		c1.5,1.7,2.9,3.1,4.1,4.1c1.2,1,2.7,2.1,4.1,2.7c1.5,0.6,2.9,1.2,4.6,1.5c1.7,0.2,3.7,0.4,6,0.4h22c1.9,0,3.5-0.6,5-2.1
		c1.5-1.5,2.1-3.1,2.1-5v-50l15.3,21.8c1.9,2.5,3.7,4.6,5.6,6c1.9,1.5,4.1,2.1,6.4,2.1c2.5,0,4.6-0.6,6.4-2.1c1.9-1.5,3.7-3.5,5.6-6
		l15.3-21.8v50c0,1.9,0.6,3.5,2.1,5c1.5,1.5,3.1,2.1,5,2.1h5.8c1.9,0,3.5-0.6,5-2.1C282.5,321.9,283.2,320.2,283.2,318.4"/>
	<path fill="#B4B6B3" d="M363.4,214.1c3.5,1.2,5.4,5.2,4.1,8.7l-41.5,119c-1.2,3.5-5.2,5.4-8.7,4.1l0,0c-3.5-1.2-5.4-5.2-4.1-8.7
		l41.5-119C355.9,214.7,359.7,212.8,363.4,214.1L363.4,214.1z"/>
	<path fill="#B4B6B3" d="M398.6,214.1c3.5,1.2,5.4,5.2,4.1,8.7l-41.5,119c-1.2,3.5-5.2,5.4-8.7,4.1l0,0c-3.5-1.2-5.4-5.2-4.1-8.7
		l41.5-119C391.2,214.7,395.1,212.8,398.6,214.1L398.6,214.1z"/>
	<path fill="#B4B6B3" d="M450.3,231.1c0,0,21.1,52.9,21.6,53.9s3.7,10.4,3.7,10.4s4.4-13.3,3.3-10.4c-1,2.9,21.6-53.9,21.6-53.9
		l35,94.7h-14.7c0,0-15.3-40.8-17.4-46.6c-2.1-5.6-4.6-13.5-4.6-13.5s-3.3,10.6-4.4,13.5c-1,2.9-19.1,50-19.1,50s-18.2-47.1-19.3-50
		c-1-2.9-4.6-13.5-4.6-13.5s-3.5,11-4.4,13.5s-17.4,46.6-17.4,46.6h-15.1L450.3,231.1z"/>
	<path fill="#B4B6B3" d="M572.1,315.2c-5.4,0-10.4-1.7-13.9-5.4c-3.3-3.5-5.4-9.1-5.4-14.3s2.1-10.8,5.2-14.3
		c3.5-3.7,8.5-5.4,14.1-5.4c6.2,0,11.6,2.9,15.1,7.5V268c-4.6-2.5-10-3.7-15.5-3.7c-9.5,0-18,2.7-24,8.7c-5.6,5.6-8.9,14.5-8.9,22.8
		c0,8.5,3.5,17.2,9.1,23c6,6,14.5,8.5,23.8,8.5c5.6,0,11-1.5,15.5-3.7v-16C583.8,312.3,578.2,315.2,572.1,315.2z"/>
	<path fill="#B4B6B3" d="M664.8,309.6c-4.6,2.3-11.4,4.1-16.8,4.1c-8.5,0-16-2.7-22-7.5c-7.7-6.2-11.4-16-11.4-26.5
		c0-9.1,2.9-18,8.9-24.3c6.4-6.4,16-10,25.7-10c10,0,19.5,4.1,26.5,10.8v-16c-7.9-5.6-17.6-8.9-28.2-8.9c-13.9,0-26.7,5.6-35.7,14.5
		c-8.5,8.5-13.1,20.3-13.1,33.2c0,14.9,6.8,29.2,17.6,38.1c8.5,6.8,19.3,10,31.1,10c7.7,0,15.1-1.5,21.6-4.6c2.3-1,4.6-2.5,6.6-3.9
		V302C672.7,305.1,669,307.6,664.8,309.6z"/>
	<path fill="#B4B6B3" d="M754.8,325.8h15.8L726,231.7L681.8,326h15.8l10.4-24h36.7L754.8,325.8z M713.9,289.1c0,0,9.3-20.7,10-22.4
		c0.6-1.7,2.5-7.9,2.5-7.9s1.9,6.2,2.7,8.1s10,22.4,10,22.4L713.9,289.1z"/>
	<polygon fill="#B4B6B3" points="778.8,325.8 792.3,325.8 792.3,262 800,271.1 860.1,328.5 860.1,234 846.4,234 846.4,297 
		837.7,287.3 778.6,230.5 	"/>
	<polygon fill="#B4B6B3" points="878.7,325.6 892.2,325.6 892.2,261.8 899.9,270.7 960,328.3 960,233.6 946.3,233.6 946.3,296.8 
		937.6,287 878.5,230 	"/>
</g>
</svg>
